<svg width="252" height="58" viewBox="0 0 252 58" fill="none" xmlns="http://www.w3.org/2000/svg">
<g clip-path="url(#clip0_734_61884)">
<path d="M112.438 18.29H110.091L101.949 25.3598V18.29H100.254V39.7095H101.975V28.8624L112.378 39.7095H114.717L102.516 26.9394L112.438 18.29Z" fill="white"/>
<path d="M123.318 18.29H121.597V39.7095H123.318V18.29Z" fill="white"/>
<path d="M176.998 39.7095H185.2V38.0955H178.719V31.9101H184.131V30.2961H178.719V19.904H185.2V18.29H176.998V39.7095Z" fill="white"/>
<path d="M245.627 38.0955V18.29H243.906V39.7095H252V38.0955H245.627Z" fill="white"/>
<path d="M90.3746 29.15C90.1171 28.9182 89.851 28.695 89.5764 28.4804C89.4176 28.3559 89.2545 28.2314 89.0871 28.1155C88.9412 28.0125 88.7953 27.9095 88.6451 27.8108C88.4949 27.712 88.3446 27.6133 88.1944 27.5146C88.0442 27.4159 87.8897 27.3214 87.7352 27.2227C87.585 27.1283 87.4305 27.0338 87.276 26.9394C86.9756 26.7591 86.6752 26.5788 86.3705 26.4071C86.0443 26.2183 85.7224 26.0251 85.4091 25.8234C85.1216 25.6388 84.834 25.4413 84.5594 25.2396C84.4134 25.1323 84.2761 25.0207 84.1388 24.9005C84.0143 24.7932 83.8942 24.6773 83.7783 24.5571C83.671 24.4455 83.568 24.3296 83.4736 24.2094C83.3834 24.0978 83.3019 23.9776 83.2289 23.8574C83.1603 23.7415 83.0959 23.6256 83.0401 23.5011C82.9886 23.3852 82.9414 23.265 82.9071 23.1406C82.8727 23.0204 82.847 22.9002 82.8298 22.7757C82.8126 22.6512 82.8041 22.531 82.8041 22.4065V22.2692C82.8041 22.1747 82.8041 22.0846 82.8126 21.9902C82.8212 21.9 82.8298 21.8142 82.8427 21.724C82.8556 21.6382 82.8727 21.5566 82.8942 21.4708C82.9156 21.3935 82.9371 21.312 82.9671 21.2347C82.9929 21.1617 83.0229 21.0845 83.0573 21.0158C83.0916 20.9471 83.1259 20.8741 83.1688 20.8097C83.2075 20.7454 83.2504 20.681 83.2976 20.6166C83.3405 20.5608 83.3877 20.505 83.4349 20.4492C83.4693 20.4105 83.5079 20.3719 83.5465 20.3333C83.5766 20.3075 83.6023 20.2818 83.6324 20.256C83.6839 20.2131 83.7354 20.1702 83.7911 20.1272C83.8469 20.0843 83.9027 20.0457 83.9585 20.0113C84.0229 19.9684 84.0916 19.9298 84.1602 19.8911C84.2289 19.8525 84.3019 19.8182 84.3748 19.7881C84.4478 19.7581 84.5207 19.728 84.598 19.7023C84.6752 19.6765 84.7525 19.6551 84.8297 19.6336C84.9113 19.6121 84.9885 19.5993 85.0701 19.5821C85.1559 19.5692 85.246 19.5563 85.3362 19.5477C85.4349 19.5392 85.5379 19.5349 85.6409 19.5349C85.7181 19.5349 85.7954 19.5349 85.8726 19.5392C86.0142 19.5477 86.1559 19.5606 86.2975 19.5778C86.4692 19.6036 86.6365 19.6336 86.7996 19.6808C86.9627 19.7237 87.1258 19.7795 87.2846 19.8439C87.4434 19.9083 87.6022 19.9856 87.7524 20.0714C87.8211 20.1101 87.8854 20.1487 87.9498 20.1916C88.0356 20.2474 88.1172 20.3032 88.1987 20.3633C88.2888 20.432 88.379 20.505 88.4648 20.5779C88.5936 20.6895 88.7137 20.8097 88.8253 20.9385C88.9412 21.0673 89.0485 21.2046 89.1472 21.3463C89.2459 21.4879 89.3403 21.6382 89.4261 21.7927C89.5849 22.0846 89.7437 22.3765 89.9025 22.6684C89.9969 21.7927 90.0871 20.917 90.1815 20.0414C90.1557 20.007 90.13 19.9727 90.1042 19.9427C90.0184 19.8353 89.9326 19.7323 89.8424 19.6336C89.7523 19.5349 89.6579 19.4404 89.5592 19.346C89.4648 19.2559 89.3618 19.1657 89.2588 19.0842C89.1558 19.0026 89.0528 18.921 88.9455 18.8481C88.8382 18.7751 88.7266 18.7021 88.615 18.6377C88.5034 18.5734 88.3876 18.509 88.2674 18.4532C88.1515 18.3974 88.0271 18.3459 87.9069 18.2986C87.7824 18.2514 87.658 18.2085 87.5335 18.1699C87.4048 18.1312 87.276 18.0969 87.143 18.0668C87.0099 18.0368 86.8769 18.011 86.7395 17.9896C86.6022 17.9681 86.4649 17.9509 86.3275 17.9424C86.173 17.9295 86.0185 17.9209 85.864 17.9209C85.6108 17.9209 85.3533 17.9295 85.1001 17.9552C84.9456 17.9724 84.7911 17.9939 84.6366 18.0239C84.4435 18.0583 84.2546 18.1055 84.0701 18.1656C83.8899 18.2214 83.7139 18.2858 83.5379 18.363C83.3791 18.4317 83.2203 18.5133 83.0701 18.6034C82.9714 18.6635 82.8727 18.7236 82.774 18.7923C82.6968 18.8481 82.6152 18.9039 82.5423 18.964C82.4264 19.0541 82.3105 19.1528 82.2075 19.2602C82.1388 19.3288 82.0745 19.3975 82.0144 19.4705C81.9543 19.5435 81.8942 19.6164 81.8384 19.6937C81.7826 19.771 81.7311 19.8482 81.6796 19.9298C81.6281 20.0113 81.5809 20.0929 81.538 20.1787C81.4951 20.2646 81.4522 20.3504 81.4178 20.4406C81.3792 20.5307 81.3449 20.6209 81.3148 20.7153C81.2848 20.8097 81.2548 20.9042 81.229 21.0029C81.2033 21.1016 81.1818 21.2004 81.1646 21.2991C81.1432 21.415 81.126 21.5352 81.1131 21.6511C81.0874 21.8657 81.0788 22.0803 81.0788 22.2949V22.4881C81.0788 22.6426 81.0874 22.8014 81.1045 22.956C81.1217 23.1105 81.1432 23.265 81.1775 23.4196C81.2118 23.5741 81.2505 23.7243 81.302 23.8703C81.3449 24.0033 81.3964 24.1364 81.4565 24.2652C81.5337 24.4412 81.6238 24.6129 81.7225 24.776C81.8041 24.9134 81.8942 25.0421 81.9886 25.1709C82.0616 25.2696 82.1346 25.3641 82.2075 25.4542C82.3019 25.5701 82.4049 25.686 82.5079 25.7976C82.6152 25.9135 82.7268 26.0208 82.8427 26.1281C82.9586 26.2354 83.0787 26.3385 83.1989 26.4329C83.289 26.5016 83.3791 26.5702 83.4693 26.6389C83.5165 26.6733 83.5594 26.7033 83.6066 26.7334C83.671 26.7763 83.7396 26.8192 83.804 26.8621C83.9757 26.9737 84.1474 27.0811 84.319 27.1927C84.4907 27.3 84.6624 27.4116 84.834 27.5189C85.1044 27.6906 85.3791 27.8623 85.6495 28.0383C85.7653 28.1112 85.8769 28.1842 85.9928 28.2529C86.1087 28.3259 86.2202 28.3988 86.3361 28.4718C86.5035 28.5791 86.6666 28.6821 86.834 28.7895C87.0013 28.8968 87.1644 29.0041 87.3275 29.1114C87.4906 29.2187 87.6494 29.3217 87.8125 29.429C87.9756 29.5364 88.1343 29.6437 88.2931 29.751C88.3403 29.7853 88.3919 29.8154 88.4391 29.8497C88.4605 29.8626 88.4777 29.8797 88.4991 29.8926C88.5206 29.9055 88.5378 29.9227 88.5592 29.9356C88.585 29.9527 88.6107 29.9742 88.6365 29.9914C88.6622 30.0085 88.688 30.03 88.7137 30.0514C88.8339 30.1459 88.9541 30.2446 89.0656 30.3476C89.13 30.4034 89.1901 30.4635 89.2502 30.5236C89.3103 30.5837 89.3704 30.6438 89.4261 30.7082C89.4819 30.7726 89.542 30.837 89.5935 30.9014C89.6493 30.9657 89.7008 31.0344 89.7523 31.1031C89.8553 31.2362 89.9497 31.3692 90.0399 31.5109C90.0957 31.601 90.1514 31.6869 90.2029 31.7813C90.2459 31.8586 90.2888 31.9358 90.3231 32.0174C90.3789 32.1376 90.4347 32.2621 90.4776 32.3866C90.5334 32.5454 90.5849 32.7042 90.6235 32.8673C90.6622 33.0347 90.6922 33.2021 90.7094 33.3738C90.7265 33.5455 90.7394 33.7172 90.7394 33.8889V34.052C90.7394 34.2194 90.7308 34.3826 90.718 34.55C90.7051 34.7088 90.6793 34.8676 90.6493 35.0221C90.6192 35.1724 90.5806 35.3226 90.5377 35.4729C90.4948 35.6145 90.4433 35.7562 90.3789 35.8935C90.3188 36.0266 90.2544 36.1596 90.1772 36.2884C90.1042 36.4172 90.0227 36.5374 89.9326 36.6576C89.851 36.7649 89.7652 36.8679 89.6708 36.9666C89.6064 37.0353 89.542 37.0997 89.4777 37.1598C89.4433 37.1941 89.4047 37.2285 89.3661 37.2585C89.2888 37.3272 89.2073 37.3916 89.1257 37.456C89.0442 37.5204 88.9626 37.5805 88.8768 37.6363C88.7523 37.7221 88.6279 37.7994 88.4948 37.8724C88.3661 37.9453 88.2288 38.0097 88.0914 38.0698C87.9541 38.1299 87.8125 38.1814 87.6708 38.2286C87.5292 38.2758 87.3833 38.3145 87.2331 38.3488C87.0829 38.3832 86.9327 38.4089 86.7825 38.4304C86.6365 38.4518 86.4863 38.4647 86.3361 38.469C86.2202 38.4733 86.1044 38.4776 85.9928 38.4776C85.9241 38.4776 85.8597 38.4776 85.7911 38.4733C85.701 38.4733 85.6108 38.4647 85.5207 38.4604C85.3662 38.4518 85.216 38.4347 85.0615 38.4132C84.9156 38.3917 84.7697 38.366 84.6237 38.3359C84.4821 38.3059 84.3448 38.2715 84.2074 38.2286C84.0744 38.19 83.9414 38.1428 83.8126 38.0913C83.6881 38.044 83.5637 37.9882 83.4392 37.9282C83.3448 37.8809 83.2504 37.8294 83.1603 37.7779C83.0659 37.7221 82.9714 37.662 82.877 37.5976C82.7697 37.5247 82.6624 37.4431 82.5594 37.3615C82.435 37.2628 82.3148 37.1598 82.1989 37.0482C82.0315 36.8937 81.877 36.7263 81.7311 36.5503C81.5638 36.3485 81.405 36.1339 81.2676 35.9064C81.126 35.6789 80.9972 35.4428 80.89 35.1981C80.7312 34.8547 80.5767 34.507 80.4179 34.1636C80.3149 35.1037 80.2162 36.0438 80.1132 36.9838C80.1346 37.0139 80.1561 37.0482 80.1775 37.0782C80.302 37.2671 80.435 37.4474 80.5767 37.6234C80.714 37.7951 80.8599 37.9625 81.0144 38.1256C81.1646 38.2801 81.3234 38.4304 81.4865 38.572C81.6496 38.7094 81.817 38.8424 81.9929 38.9626C82.1646 39.0828 82.3448 39.1944 82.5337 39.2975C82.6281 39.349 82.7182 39.3962 82.8126 39.4434C82.9071 39.4906 83.0058 39.5335 83.1002 39.5722C83.2976 39.6537 83.4993 39.7267 83.701 39.7911C83.907 39.8555 84.1173 39.907 84.3276 39.9499C84.5465 39.9928 84.7654 40.0272 84.9885 40.0529C85.1774 40.0744 85.3662 40.0873 85.555 40.0916C85.6838 40.0959 85.8125 40.0959 85.9413 40.0959C86.1087 40.0959 86.2803 40.0873 86.4477 40.0744C86.6408 40.0615 86.8383 40.0401 87.0314 40.0143C87.1988 39.9885 87.3618 39.9628 87.5249 39.9284C87.6837 39.8941 87.8425 39.8555 88.0013 39.8083C88.1558 39.7653 88.3103 39.7138 88.4648 39.658C88.615 39.6022 88.7609 39.5421 88.9069 39.4777C89.0528 39.4133 89.1944 39.3404 89.336 39.2674C89.4776 39.1901 89.615 39.1086 89.748 39.0227C89.8896 38.9326 90.027 38.8339 90.1643 38.7308C90.3446 38.5935 90.5162 38.4475 90.6793 38.293C90.7652 38.2115 90.851 38.1256 90.9325 38.0355C91.0398 37.9196 91.1428 37.7951 91.2415 37.6706C91.3402 37.5461 91.4304 37.4173 91.5162 37.2843C91.602 37.1512 91.6793 37.0139 91.7522 36.8765C91.8252 36.7348 91.8939 36.5932 91.954 36.443C92.014 36.2927 92.0698 36.1425 92.117 35.9922C92.1643 35.8377 92.2072 35.6789 92.2458 35.5201C92.2844 35.357 92.3145 35.1938 92.3359 35.0307C92.3617 34.8633 92.3788 34.6916 92.3917 34.5199C92.4046 34.3482 92.4089 34.1722 92.4089 34.0005V33.7258C92.4089 32.7943 92.2158 31.9187 91.8295 31.1289C91.4518 30.3562 90.9626 29.6909 90.3617 29.15H90.3746Z" fill="white"/>
<path d="M167.119 29.15C166.861 28.9182 166.595 28.695 166.321 28.4804C166.162 28.3559 165.999 28.2314 165.831 28.1155C165.685 28.0125 165.54 27.9095 165.389 27.8108C165.239 27.712 165.089 27.6133 164.939 27.5146C164.788 27.4159 164.634 27.3214 164.479 27.2227C164.329 27.1283 164.175 27.0338 164.02 26.9394C163.72 26.7591 163.419 26.5788 163.115 26.4071C162.789 26.2183 162.467 26.0251 162.153 25.8234C161.866 25.6388 161.578 25.4413 161.304 25.2396C161.158 25.1323 161.02 25.0207 160.883 24.9005C160.759 24.7932 160.638 24.6773 160.523 24.5571C160.415 24.4455 160.312 24.3296 160.218 24.2094C160.128 24.0978 160.046 23.9776 159.973 23.8574C159.905 23.7415 159.84 23.6256 159.784 23.5011C159.733 23.3852 159.686 23.265 159.651 23.1406C159.617 23.0204 159.591 22.9002 159.574 22.7757C159.557 22.6512 159.548 22.531 159.548 22.4065V22.2692C159.548 22.1747 159.548 22.0846 159.557 21.9902C159.565 21.9 159.574 21.8142 159.587 21.724C159.6 21.6382 159.617 21.5566 159.638 21.4708C159.66 21.3935 159.681 21.312 159.711 21.2347C159.737 21.1617 159.767 21.0845 159.802 21.0158C159.836 20.9471 159.87 20.8741 159.913 20.8097C159.952 20.7454 159.999 20.681 160.042 20.6166C160.085 20.5608 160.132 20.505 160.179 20.4492C160.214 20.4105 160.252 20.3719 160.291 20.3333C160.321 20.3075 160.347 20.2818 160.377 20.256C160.428 20.2131 160.48 20.1702 160.535 20.1272C160.591 20.0843 160.647 20.0457 160.703 20.0113C160.767 19.9684 160.836 19.9298 160.905 19.8911C160.973 19.8525 161.046 19.8182 161.119 19.7881C161.192 19.7581 161.265 19.728 161.342 19.7023C161.42 19.6765 161.497 19.6551 161.574 19.6336C161.656 19.6121 161.733 19.5993 161.814 19.5821C161.9 19.5692 161.99 19.5563 162.08 19.5477C162.179 19.5392 162.282 19.5349 162.385 19.5349C162.462 19.5349 162.54 19.5349 162.617 19.5392C162.759 19.5477 162.9 19.5606 163.042 19.5778C163.213 19.6036 163.381 19.6336 163.544 19.6808C163.707 19.7237 163.87 19.7795 164.029 19.8439C164.188 19.9083 164.346 19.9856 164.497 20.0714C164.565 20.1101 164.63 20.1487 164.694 20.1916C164.78 20.2474 164.861 20.3032 164.943 20.3633C165.033 20.432 165.123 20.505 165.209 20.5779C165.338 20.6895 165.458 20.8097 165.57 20.9385C165.685 21.0673 165.793 21.2046 165.891 21.3463C165.99 21.4879 166.085 21.6382 166.17 21.7927C166.329 22.0846 166.488 22.3765 166.647 22.6684C166.741 21.7927 166.831 20.917 166.926 20.0414C166.9 20.007 166.874 19.9727 166.848 19.9427C166.763 19.8353 166.677 19.7323 166.587 19.6336C166.497 19.5349 166.402 19.4404 166.303 19.346C166.209 19.2559 166.106 19.1657 166.003 19.0842C165.9 19.0026 165.797 18.921 165.69 18.8481C165.582 18.7751 165.471 18.7021 165.359 18.6377C165.248 18.5734 165.132 18.509 165.012 18.4532C164.891 18.3974 164.771 18.3459 164.651 18.2986C164.527 18.2514 164.402 18.2085 164.278 18.1699C164.149 18.1312 164.02 18.0969 163.887 18.0668C163.754 18.0368 163.621 18.011 163.484 17.9896C163.346 17.9681 163.209 17.9509 163.072 17.9424C162.917 17.9295 162.763 17.9209 162.608 17.9209C162.355 17.9209 162.098 17.9295 161.844 17.9552C161.69 17.9724 161.535 17.9939 161.381 18.0239C161.188 18.0583 160.999 18.1055 160.814 18.1656C160.634 18.2214 160.458 18.2858 160.282 18.363C160.123 18.4317 159.965 18.5133 159.814 18.6034C159.716 18.6635 159.617 18.7236 159.518 18.7923C159.441 18.8481 159.359 18.9039 159.287 18.964C159.171 19.0541 159.055 19.1528 158.952 19.2602C158.883 19.3288 158.819 19.3975 158.759 19.4705C158.699 19.5435 158.638 19.6164 158.583 19.6937C158.527 19.771 158.475 19.8482 158.424 19.9298C158.372 20.0113 158.325 20.0929 158.282 20.1787C158.239 20.2646 158.196 20.3504 158.162 20.4406C158.123 20.5307 158.089 20.6209 158.059 20.7153C158.029 20.8097 157.999 20.9042 157.973 21.0029C157.948 21.1016 157.926 21.2004 157.909 21.2991C157.887 21.415 157.87 21.5352 157.857 21.6511C157.832 21.8657 157.823 22.0803 157.823 22.2949V22.4881C157.823 22.6426 157.832 22.8014 157.849 22.956C157.866 23.1105 157.887 23.265 157.922 23.4196C157.956 23.5741 157.995 23.7243 158.046 23.8703C158.089 24.0033 158.141 24.1364 158.201 24.2652C158.278 24.4412 158.368 24.6129 158.467 24.776C158.548 24.9134 158.638 25.0421 158.733 25.1709C158.806 25.2696 158.879 25.3641 158.952 25.4542C159.046 25.5701 159.149 25.686 159.252 25.7976C159.359 25.9135 159.471 26.0208 159.587 26.1281C159.703 26.2354 159.823 26.3385 159.943 26.4329C160.033 26.5016 160.123 26.5702 160.214 26.6389C160.261 26.6733 160.304 26.7033 160.351 26.7334C160.415 26.7763 160.484 26.8192 160.548 26.8621C160.72 26.9737 160.892 27.0811 161.063 27.1927C161.235 27.3 161.407 27.4116 161.578 27.5189C161.849 27.6906 162.123 27.8623 162.394 28.0383C162.51 28.1112 162.621 28.1842 162.737 28.2529C162.853 28.3259 162.965 28.3988 163.08 28.4718C163.248 28.5791 163.411 28.6821 163.578 28.7895C163.746 28.8968 163.909 29.0041 164.072 29.1114C164.235 29.2187 164.394 29.3217 164.557 29.429C164.72 29.5364 164.879 29.6437 165.037 29.751C165.085 29.7853 165.136 29.8154 165.183 29.8497C165.205 29.8626 165.222 29.8797 165.243 29.8926C165.265 29.9055 165.282 29.9227 165.303 29.9356C165.329 29.9527 165.355 29.9742 165.381 29.9914C165.406 30.0085 165.432 30.03 165.458 30.0514C165.578 30.1459 165.698 30.2446 165.81 30.3476C165.874 30.4034 165.934 30.4635 165.994 30.5236C166.055 30.5837 166.115 30.6438 166.17 30.7082C166.226 30.7726 166.286 30.837 166.338 30.9014C166.394 30.9657 166.445 31.0344 166.497 31.1031C166.6 31.2362 166.694 31.3692 166.784 31.5109C166.84 31.601 166.896 31.6869 166.947 31.7813C166.99 31.8586 167.033 31.9358 167.067 32.0174C167.123 32.1376 167.175 32.2621 167.222 32.3866C167.278 32.5454 167.329 32.7042 167.368 32.8673C167.406 33.0347 167.436 33.2021 167.454 33.3738C167.471 33.5455 167.484 33.7172 167.484 33.8889V34.052C167.484 34.2194 167.475 34.3826 167.462 34.55C167.449 34.7088 167.424 34.8676 167.394 35.0221C167.364 35.1724 167.325 35.3226 167.282 35.4729C167.239 35.6145 167.188 35.7562 167.123 35.8935C167.063 36.0266 166.999 36.1596 166.921 36.2884C166.849 36.4172 166.767 36.5374 166.677 36.6576C166.595 36.7649 166.509 36.8679 166.415 36.9666C166.351 37.0353 166.286 37.0997 166.222 37.1598C166.188 37.1941 166.149 37.2285 166.11 37.2585C166.033 37.3272 165.952 37.3916 165.87 37.456C165.788 37.5204 165.707 37.5805 165.621 37.6363C165.497 37.7221 165.372 37.7994 165.239 37.8724C165.11 37.9453 164.973 38.0097 164.836 38.0698C164.698 38.1299 164.557 38.1814 164.415 38.2286C164.269 38.2758 164.128 38.3145 163.977 38.3488C163.827 38.3832 163.677 38.4089 163.527 38.4304C163.381 38.4518 163.231 38.4647 163.08 38.469C162.965 38.4733 162.849 38.4776 162.737 38.4776C162.668 38.4776 162.604 38.4776 162.535 38.4733C162.445 38.4733 162.355 38.4647 162.265 38.4604C162.11 38.4518 161.96 38.4347 161.806 38.4132C161.66 38.3917 161.514 38.366 161.368 38.3359C161.226 38.3059 161.089 38.2715 160.952 38.2286C160.819 38.19 160.686 38.1428 160.557 38.0913C160.432 38.044 160.308 37.9882 160.183 37.9282C160.089 37.8809 159.995 37.8294 159.905 37.7779C159.81 37.7221 159.716 37.662 159.621 37.5976C159.514 37.5247 159.407 37.4431 159.304 37.3615C159.179 37.2628 159.059 37.1598 158.943 37.0482C158.776 36.8937 158.621 36.7263 158.475 36.5503C158.308 36.3485 158.149 36.1339 158.012 35.9064C157.87 35.6789 157.742 35.4428 157.634 35.1981L157.162 34.1636C157.059 35.1037 156.96 36.0438 156.857 36.9838C156.879 37.0139 156.9 37.0482 156.922 37.0782C157.046 37.2671 157.179 37.4474 157.321 37.6234C157.458 37.7951 157.604 37.9625 157.759 38.1256C157.909 38.2801 158.068 38.4304 158.231 38.572C158.394 38.7094 158.561 38.8424 158.737 38.9626C158.909 39.0828 159.089 39.1944 159.278 39.2975C159.372 39.349 159.462 39.3962 159.557 39.4434C159.651 39.4906 159.75 39.5335 159.844 39.5722C160.042 39.6537 160.244 39.7267 160.445 39.7911C160.651 39.8555 160.862 39.907 161.072 39.9499C161.291 39.9928 161.51 40.0272 161.733 40.0529C161.922 40.0744 162.11 40.0873 162.299 40.0916C162.428 40.0959 162.557 40.0959 162.686 40.0959C162.853 40.0959 163.025 40.0873 163.192 40.0744C163.389 40.0615 163.583 40.0401 163.776 40.0143C163.943 39.9885 164.106 39.9628 164.269 39.9284C164.428 39.8941 164.587 39.8555 164.746 39.8083C164.9 39.7653 165.055 39.7138 165.209 39.658C165.359 39.6022 165.505 39.5421 165.651 39.4777C165.797 39.4133 165.939 39.3404 166.08 39.2674C166.222 39.1901 166.359 39.1086 166.492 39.0227C166.634 38.9326 166.771 38.8339 166.909 38.7308C167.089 38.5935 167.26 38.4475 167.424 38.293C167.509 38.2115 167.595 38.1256 167.677 38.0355C167.784 37.9196 167.887 37.7951 167.986 37.6706C168.085 37.5461 168.175 37.4173 168.26 37.2843C168.346 37.1512 168.424 37.0139 168.497 36.8765C168.569 36.7348 168.638 36.5932 168.698 36.443C168.758 36.2927 168.814 36.1425 168.861 35.9922C168.909 35.8377 168.951 35.6789 168.99 35.5201C169.029 35.357 169.059 35.1938 169.08 35.0307C169.106 34.8633 169.123 34.6916 169.136 34.5199C169.149 34.3482 169.153 34.1722 169.153 34.0005V33.7258C169.153 32.7943 168.96 31.9187 168.574 31.1289C168.196 30.3562 167.707 29.6909 167.106 29.15H167.119Z" fill="white"/>
<path d="M233.387 33.4767C233.387 33.8287 233.361 34.185 233.301 34.5327C233.245 34.8546 233.159 35.1766 233.039 35.4813C232.923 35.7775 232.782 36.0608 232.61 36.3269C232.434 36.5974 232.232 36.8463 232.009 37.0738C231.786 37.3013 231.541 37.5074 231.28 37.6877C231.026 37.8594 230.752 38.0096 230.469 38.1255C230.181 38.2457 229.876 38.3315 229.572 38.3873C229.245 38.4474 228.915 38.4775 228.584 38.4775C228.254 38.4775 227.924 38.4474 227.597 38.3873C227.288 38.3272 226.988 38.2414 226.696 38.1212C226.409 38.001 226.134 37.8551 225.876 37.6791C225.61 37.4988 225.366 37.2885 225.138 37.061C224.911 36.8292 224.705 36.5802 224.529 36.3055C224.357 36.0393 224.211 35.756 224.095 35.4599C223.975 35.1551 223.889 34.8375 223.834 34.5155C223.773 34.1721 223.743 33.8201 223.743 33.4724V18.2856H222.022V33.5025C222.022 33.7386 222.031 33.979 222.053 34.215C222.074 34.4511 222.104 34.6829 222.151 34.9147C222.194 35.1379 222.246 35.3611 222.314 35.5801C222.379 35.7947 222.456 36.0093 222.542 36.2153C222.628 36.4214 222.726 36.6231 222.834 36.8206C222.941 37.018 223.061 37.2069 223.194 37.3915C223.323 37.5761 223.464 37.752 223.615 37.9237C223.765 38.0912 223.919 38.2543 224.087 38.4088C224.25 38.5633 224.422 38.705 224.602 38.8423C224.778 38.9754 224.962 39.0999 225.151 39.2158C225.327 39.3231 225.512 39.4175 225.696 39.5077C225.778 39.5463 225.864 39.5849 225.945 39.6193C226.009 39.645 226.078 39.6708 226.147 39.6965C226.271 39.7438 226.396 39.7824 226.52 39.821C226.627 39.8511 226.73 39.8811 226.838 39.9069C226.941 39.9326 227.048 39.9541 227.151 39.9755C227.353 40.0142 227.554 40.0399 227.756 40.0614C227.984 40.0829 228.211 40.0914 228.439 40.0914H228.713C229.142 40.0914 229.572 40.0528 229.992 39.9713C230.4 39.894 230.799 39.7738 231.181 39.615C231.563 39.4562 231.928 39.2544 232.271 39.0226C232.623 38.7822 232.949 38.5032 233.25 38.1985C233.55 37.8894 233.825 37.5546 234.061 37.194C234.292 36.8377 234.49 36.4557 234.644 36.0608C234.803 35.6573 234.919 35.2367 234.996 34.8074C235.078 34.361 235.112 33.9017 235.112 33.4467V18.2856H233.391V33.4724L233.387 33.4767Z" fill="white"/>
<path d="M202.954 17.9038C200.006 17.9038 197.195 19.0714 195.109 21.1532C193.023 23.2394 191.86 26.0509 191.86 28.9999C191.86 31.9488 193.028 34.7604 195.109 36.8465C197.195 38.9327 200.006 40.0959 202.954 40.0959C205.903 40.0959 208.714 38.9284 210.8 36.8465C212.885 34.7604 214.048 31.9488 214.048 28.9999C214.048 26.0509 212.881 23.2394 210.8 21.1532C208.714 19.0671 205.903 17.9038 202.954 17.9038ZM209.589 35.636C207.825 37.4003 205.448 38.3832 202.954 38.3832C200.461 38.3832 198.083 37.396 196.319 35.636C194.556 33.8718 193.573 31.4938 193.573 28.9999C193.573 26.5059 194.56 24.1279 196.319 22.3637C198.083 20.5995 200.461 19.6165 202.954 19.6165C205.448 19.6165 207.825 20.6038 209.589 22.3637C211.353 24.1279 212.336 26.5059 212.336 28.9999C212.336 31.4938 211.349 33.8718 209.589 35.636Z" fill="white"/>
<path d="M147.416 35.872L133.103 18.29H132.253V39.7095H133.867V22.1018L148.18 39.7095H149.029V18.29H147.416V35.872Z" fill="white"/>
<path d="M55.7148 40.319C55.2943 38.5248 54.6248 36.7863 53.8007 35.1466C52.8823 33.3223 51.7536 31.5881 50.5004 29.9784H65.0021C64.8562 28.1627 64.4098 26.3813 63.7747 24.6815C63.0494 22.7456 62.0666 20.8913 60.9293 19.17C58.8006 15.9377 56.0625 13.036 53.0969 10.5764C51.5776 9.31443 49.9725 8.15117 48.3074 7.09092C46.698 6.06502 45.0199 5.12926 43.299 4.29652C39.8184 2.61816 36.0674 1.32183 32.2564 0.609277C30.2694 0.231539 28.2351 0.0126225 26.2094 -0.0002549C24.3554 -0.0131323 22.4842 0.145689 20.6688 0.52772C19.5873 0.755222 18.523 1.06857 17.493 1.47207C16.5531 1.84122 15.6475 2.29193 14.7935 2.83278C14.0124 3.32642 13.2828 3.88873 12.6133 4.53261C11.9953 5.12497 11.4417 5.77742 10.961 6.48568C9.94387 7.97517 9.3044 9.64066 9.00828 11.4177C8.84519 12.4093 8.7894 13.4095 8.83232 14.4139C8.87953 15.5171 9.03832 16.6116 9.29153 17.6848C9.71212 19.479 10.3816 21.2175 11.2056 22.8572C12.1241 24.6815 13.2528 26.4157 14.5059 28.0254H0C0.145918 29.8411 0.592254 31.6224 1.22743 33.3223C1.95272 35.2582 2.93552 37.1125 4.07282 38.8338C6.20151 42.0661 8.93961 44.9678 11.9052 47.4274C13.4244 48.6894 15.0295 49.8526 16.6947 50.9129C18.3041 51.9388 19.9822 52.8745 21.7031 53.7073C25.1837 55.3856 28.9346 56.682 32.7457 57.3945C34.737 57.768 36.7713 57.9869 38.797 57.9997C40.651 58.0126 42.5222 57.8538 44.3375 57.4718C45.4191 57.2443 46.4834 56.9309 47.5134 56.5274C48.4533 56.1583 49.3588 55.7076 50.2129 55.1667C50.994 54.6731 51.7236 54.1108 52.3931 53.4669C53.0111 52.8745 53.5647 52.2221 54.0454 51.5138C55.0625 50.0243 55.702 48.3588 55.9981 46.5817C56.1612 45.5902 56.217 44.59 56.1741 43.5856C56.1268 42.4824 55.9681 41.3878 55.7148 40.3147V40.319ZM50.5133 33.348C50.7451 33.7043 50.9682 34.0649 51.1871 34.4297C51.3974 34.786 51.6034 35.1466 51.7965 35.5157C51.9854 35.872 52.1656 36.2326 52.3373 36.5974C52.5047 36.9494 52.6634 37.31 52.8137 37.6706C52.9596 38.0225 53.0926 38.3745 53.2214 38.7308C53.3415 39.0742 53.4531 39.4219 53.5561 39.7739C53.6548 40.113 53.745 40.4521 53.8222 40.7955C53.8995 41.126 53.9638 41.4565 54.0196 41.7913C54.0454 41.9459 54.0711 42.1047 54.0926 42.2592C53.8608 42.3279 53.6248 42.388 53.3887 42.4438C53.0325 42.5296 52.6763 42.6069 52.3158 42.6756C51.9424 42.7443 51.5691 42.8044 51.1957 42.8559C50.8094 42.9074 50.4189 42.9503 50.0283 42.9804C49.6249 43.0147 49.2215 43.0362 48.8181 43.049C48.4018 43.0619 47.9898 43.0662 47.5735 43.0619C47.1486 43.0576 46.7237 43.0447 46.2989 43.019C45.8654 42.9975 45.4319 42.9632 44.9985 42.9203C44.5564 42.8773 44.1187 42.8258 43.6809 42.7657C43.2346 42.7056 42.7925 42.637 42.3505 42.5554C41.9042 42.4781 41.4578 42.388 41.0115 42.2936C40.5609 42.1991 40.1145 42.0918 39.6725 41.9802C39.2261 41.8686 38.7798 41.7484 38.3378 41.6196C37.4494 41.3621 36.5696 41.0745 35.6984 40.7611C34.8357 40.4478 33.9817 40.1087 33.1362 39.7438C32.3079 39.3833 31.4882 39.0012 30.6814 38.5934C29.896 38.1985 29.1235 37.7779 28.3638 37.34C27.6042 36.9022 26.8532 36.4386 26.1193 35.9579C25.3639 35.4642 24.6215 34.9448 23.8962 34.4083C23.158 33.8588 22.437 33.2879 21.7332 32.6956C21.025 32.0989 20.3384 31.4808 19.6732 30.8369C19.3727 30.5493 19.0766 30.2532 18.7891 29.957H47.9855C48.037 30.0171 48.0885 30.0772 48.14 30.1373C48.4275 30.4806 48.7108 30.8326 48.9855 31.1846C49.2558 31.5323 49.5219 31.8886 49.7794 32.2492C50.0326 32.6011 50.2773 32.9617 50.5133 33.3266V33.348ZM10.7722 13.418C10.7807 13.1304 10.7979 12.8428 10.8237 12.5595C10.8752 12.0187 10.961 11.4821 11.0898 10.9542C11.1498 10.7052 11.2185 10.4562 11.2958 10.2116C11.373 9.97547 11.4545 9.73938 11.549 9.50759C11.6391 9.28009 11.7378 9.06117 11.8451 8.84226C11.9481 8.62763 12.0597 8.4173 12.1798 8.21126C12.3 8.00522 12.4245 7.80347 12.5575 7.60602C12.6948 7.40427 12.8365 7.20682 12.9867 7.01795C13.1412 6.8205 13.3043 6.63163 13.4716 6.44705C13.6433 6.25818 13.8236 6.07361 14.0124 5.89761C14.2055 5.71304 14.4029 5.53705 14.6089 5.36964C14.8235 5.19365 15.0424 5.02624 15.2656 4.86742C15.5016 4.70001 15.7377 4.54119 15.9823 4.39525C16.2355 4.24072 16.4973 4.09048 16.7634 3.95312C17.038 3.80718 17.3213 3.67411 17.6046 3.54533C17.9007 3.41227 18.2011 3.29208 18.5058 3.17618C18.8234 3.06028 19.1453 2.94868 19.4671 2.84995C19.8019 2.74693 20.1409 2.6525 20.4843 2.57094C20.8405 2.48509 21.1967 2.40783 21.5572 2.33915C21.9306 2.27047 22.304 2.21037 22.6773 2.15886C23.0636 2.10735 23.4541 2.06443 23.8447 2.03438C24.2481 2.00004 24.6515 1.97858 25.0549 1.96141C25.4712 1.94853 25.8832 1.94424 26.2995 1.94853C26.7244 1.95282 27.1493 1.9657 27.5742 1.99146C28.0076 2.01292 28.4411 2.04726 28.8746 2.09018C29.3166 2.13311 29.7544 2.18462 30.1921 2.24471C30.6384 2.30481 31.0805 2.37349 31.5225 2.45504C31.9689 2.53231 32.4152 2.62245 32.8615 2.71689C33.3122 2.81132 33.7585 2.91863 34.2006 3.03024C34.6469 3.14184 35.0932 3.26203 35.5353 3.39081C36.4237 3.64835 37.3035 3.93595 38.1747 4.2493C39.0373 4.56265 39.8913 4.90176 40.7368 5.26662C41.5651 5.62719 42.3848 6.00922 43.1917 6.417C43.977 6.81191 44.7495 7.23258 45.5092 7.67041C46.2688 8.10824 47.0199 8.57183 47.7537 9.05259C48.5091 9.54622 49.2515 10.0656 49.9768 10.6022C50.715 11.1516 51.436 11.7225 52.1399 12.3149C52.848 12.9115 53.5347 13.5296 54.1999 14.1735C54.8608 14.8131 55.5046 15.4698 56.1226 16.1566C56.4273 16.4958 56.7277 16.8391 57.0195 17.1868C57.3071 17.5302 57.5903 17.8822 57.865 18.2342C58.1354 18.5819 58.4014 18.9382 58.6589 19.2987C58.9122 19.6507 59.1568 20.0113 59.3928 20.3762C59.6246 20.7324 59.8478 21.093 60.0666 21.4579C60.2769 21.8141 60.4829 22.1747 60.676 22.5439C60.8649 22.9001 61.0451 23.2607 61.2168 23.6256C61.3842 23.9775 61.543 24.3381 61.6932 24.6987C61.8391 25.0507 61.9721 25.4026 62.1009 25.7589C62.2211 26.1023 62.3326 26.45 62.4356 26.802C62.5344 27.1411 62.6245 27.4802 62.7017 27.8236C62.7189 27.8966 62.7361 27.9653 62.7489 28.0382H48.8825C46.5349 25.4026 43.8054 23.0504 40.9042 21.0501C40.166 20.5436 39.415 20.0542 38.651 19.5863C38.2777 19.3588 37.9 19.1356 37.5223 18.9167C37.1404 18.6978 36.7584 18.4832 36.3722 18.2771C34.8143 17.4358 33.2049 16.6803 31.5655 16.015C28.3038 14.6972 24.8232 13.7228 21.3255 13.2721C17.8706 12.8257 14.1884 12.8686 10.7722 13.77C10.7722 13.6584 10.7722 13.5425 10.7765 13.4309L10.7722 13.418ZM14.4888 24.6515C14.257 24.2952 14.0339 23.9346 13.815 23.5698C13.6047 23.2135 13.3987 22.8529 13.2056 22.4838C13.0167 22.1275 12.8365 21.7669 12.6648 21.4021C12.4974 21.0501 12.3386 20.6895 12.1884 20.3289C12.0425 19.977 11.9095 19.625 11.7807 19.2687C11.6605 18.9253 11.549 18.5776 11.446 18.2256C11.3473 17.8865 11.2571 17.5474 11.1799 17.204C11.1026 16.8735 11.0383 16.543 10.9825 16.2082C10.9567 16.0536 10.931 15.8948 10.9095 15.7403C11.1413 15.6716 11.3773 15.6115 11.6133 15.5557C11.9696 15.4698 12.3258 15.3926 12.6863 15.3239C13.0596 15.2552 13.433 15.1951 13.8064 15.1436C14.1926 15.0921 14.5832 15.0492 14.9737 15.0191C15.3772 14.9848 15.7806 14.9633 16.184 14.9462C16.6003 14.9333 17.0123 14.929 17.4286 14.9333C17.8535 14.9376 18.2783 14.9505 18.7032 14.9762C19.1367 14.9977 19.5702 15.032 20.0036 15.0749C20.4457 15.1179 20.8834 15.1694 21.3212 15.2295C21.7675 15.2896 22.2095 15.3582 22.6516 15.4398C23.0979 15.5171 23.5443 15.6072 23.9906 15.7016C24.4412 15.7961 24.8876 15.9034 25.3296 16.015C25.7759 16.1266 26.2223 16.2468 26.6643 16.3756C27.5527 16.6331 28.4325 16.9207 29.3037 17.2341C30.1664 17.5474 31.0204 17.8865 31.8659 18.2514C32.6942 18.6119 33.5139 18.994 34.3207 19.4018C35.1061 19.7967 35.8786 20.2173 36.6382 20.6552C37.3979 21.093 38.1489 21.5566 38.8828 22.0373C39.6381 22.531 40.3806 23.0504 41.1059 23.5869C41.8441 24.1364 42.5651 24.7073 43.2689 25.2996C43.977 25.8963 44.6637 26.5144 45.3289 27.1583C45.6293 27.4459 45.9255 27.742 46.213 28.0382H17.0123C16.9608 27.9781 16.9093 27.918 16.8578 27.8579C16.5703 27.5145 16.287 27.1626 16.0123 26.8106C15.742 26.4629 15.4759 26.1066 15.2184 25.746C14.9652 25.3941 14.7205 25.0335 14.4845 24.6686L14.4888 24.6515ZM54.2299 44.5815C54.2213 44.869 54.2042 45.1566 54.1784 45.4399C54.1269 45.9808 54.0411 46.5174 53.9123 47.0453C53.8522 47.2943 53.7836 47.5433 53.7063 47.7879C53.6291 48.024 53.5475 48.2601 53.4531 48.4919C53.363 48.7194 53.2643 48.9383 53.157 49.1572C53.054 49.3719 52.9424 49.5822 52.8222 49.7882C52.7021 49.9943 52.5776 50.196 52.4446 50.3935C52.3072 50.5952 52.1656 50.7927 52.0154 50.9815C51.8609 51.179 51.6978 51.3679 51.5304 51.5524C51.3588 51.7413 51.1785 51.9259 50.9897 52.1019C50.7966 52.2865 50.5991 52.4624 50.3931 52.6299C50.1786 52.8058 49.9597 52.9733 49.7365 53.1321C49.5005 53.2995 49.2644 53.4583 49.0198 53.6042C48.7666 53.7588 48.5048 53.909 48.2387 54.0464C47.964 54.1923 47.6808 54.3254 47.3975 54.4542C47.1014 54.5872 46.801 54.7074 46.4963 54.8233C46.1787 54.9392 45.8568 55.0508 45.5349 55.1495C45.2002 55.2526 44.8611 55.347 44.5178 55.4286C44.1616 55.5144 43.8054 55.5917 43.4449 55.6603C43.0715 55.729 42.6981 55.7891 42.3247 55.8406C41.9385 55.8921 41.5479 55.9351 41.1574 55.9651C40.754 55.9995 40.3506 56.0209 39.9471 56.0381C39.5308 56.051 39.1188 56.0553 38.7025 56.051C38.2777 56.0467 37.8528 56.0338 37.4279 56.008C36.9944 55.9866 36.561 55.9522 36.1275 55.9093C35.6855 55.8664 35.2477 55.8149 34.81 55.7548C34.3636 55.6947 33.9216 55.626 33.4795 55.5444C33.0332 55.4672 32.5869 55.377 32.1405 55.2826C31.6899 55.1882 31.2436 55.0809 30.8015 54.9693C30.3552 54.8577 29.9089 54.7375 29.4668 54.6087C28.5784 54.3511 27.6986 54.0635 26.8274 53.7502C25.9648 53.4368 25.1107 53.0977 24.2653 52.7329C23.437 52.3723 22.6173 51.9903 21.8104 51.5825C21.025 51.1876 20.2525 50.7669 19.4929 50.3291C18.7333 49.8913 17.9822 49.4277 17.2483 48.9469C16.493 48.4533 15.7505 47.9339 15.0252 47.3973C14.2871 46.8479 13.5661 46.277 12.8622 45.6846C12.1541 45.088 11.4674 44.4698 10.8022 43.826C10.1413 43.1864 9.49753 42.5296 8.87953 41.8428C8.57482 41.5037 8.2744 41.1603 7.98256 40.8127C7.69502 40.4693 7.41176 40.1173 7.1371 39.7653C6.86672 39.4176 6.60063 39.0613 6.34313 38.7008C6.08992 38.3488 5.84529 37.9882 5.60925 37.6233C5.3775 37.2671 5.15433 36.9065 4.93545 36.5416C4.72516 36.1854 4.51916 35.8248 4.32603 35.4556C4.1372 35.0994 3.95695 34.7388 3.78528 34.3739C3.6179 34.0219 3.45911 33.6614 3.3089 33.3008C3.16298 32.9488 3.02994 32.5968 2.90119 32.2406C2.78102 31.8972 2.66944 31.5495 2.56644 31.1975C2.46773 30.8584 2.3776 30.5193 2.30035 30.1759C2.28318 30.1029 2.26602 30.0342 2.25314 29.9613H16.1196C18.4672 32.5968 21.1967 34.9491 24.0979 36.9494C24.8361 37.4559 25.5828 37.9453 26.351 38.4132C26.7244 38.6407 27.1021 38.8639 27.4798 39.0828C27.8617 39.3017 28.2437 39.5163 28.6299 39.7224C30.1878 40.5637 31.7972 41.3192 33.4409 41.9845C36.7026 43.3023 40.1832 44.2767 43.6809 44.7274C47.1357 45.1738 50.818 45.1309 54.2342 44.2295C54.2342 44.3411 54.2342 44.457 54.2342 44.5686L54.2299 44.5815Z" fill="white"/>
</g>
<defs>
<clipPath id="clip0_734_61884">
<rect width="252" height="58" fill="white"/>
</clipPath>
</defs>
</svg>
